<mxfile host="app.diagrams.net" modified="2021-01-11T11:05:12.884Z" agent="5.0 (Windows NT 10.0; WOW64) AppleWebKit/537.36 (KHTML, like Gecko) Chrome/78.0.3904.108 Safari/537.36" etag="ldTpj0QvLJC7UKsvdoie" version="14.1.8" type="github">
  <diagram id="bf80UPLbCTyl_fY6sAvL" name="第 1 页">
    <mxGraphModel dx="1824" dy="1532" grid="0" gridSize="10" guides="1" tooltips="1" connect="1" arrows="1" fold="1" page="0" pageScale="1" pageWidth="827" pageHeight="1169" math="0" shadow="0">
      <root>
        <mxCell id="0" />
        <mxCell id="1" parent="0" />
        <mxCell id="e-44g8FwVzKqQIyxse7l-46" value="一对一" style="shape=umlFrame;whiteSpace=wrap;html=1;fillColor=#fad7ac;strokeColor=#b46504;dashed=1;shadow=0;dashPattern=1 2;" vertex="1" parent="1">
          <mxGeometry x="-231" y="454" width="809" height="415" as="geometry" />
        </mxCell>
        <mxCell id="e-44g8FwVzKqQIyxse7l-43" value="录入渠道订单" style="shape=umlFrame;whiteSpace=wrap;html=1;fillColor=#fad7ac;strokeColor=#b46504;dashed=1;shadow=0;dashPattern=1 2;" vertex="1" parent="1">
          <mxGeometry x="-231" y="-211" width="809" height="351" as="geometry" />
        </mxCell>
        <mxCell id="e-44g8FwVzKqQIyxse7l-45" value="查询渠道订单" style="shape=umlFrame;whiteSpace=wrap;html=1;fillColor=#fad7ac;strokeColor=#b46504;dashed=1;dashPattern=1 2;shadow=0;" vertex="1" parent="1">
          <mxGeometry x="-231" y="-372" width="809" height="152" as="geometry" />
        </mxCell>
        <mxCell id="e-44g8FwVzKqQIyxse7l-2" value="鹊桥前端" style="shape=umlLifeline;perimeter=lifelinePerimeter;whiteSpace=wrap;html=1;container=1;collapsible=0;recursiveResize=0;outlineConnect=0;fillColor=#b1ddf0;strokeColor=#10739e;" vertex="1" parent="1">
          <mxGeometry x="67" y="-432" width="100" height="573" as="geometry" />
        </mxCell>
        <mxCell id="e-44g8FwVzKqQIyxse7l-11" value="" style="html=1;points=[];perimeter=orthogonalPerimeter;fillColor=#b1ddf0;strokeColor=#10739e;" vertex="1" parent="e-44g8FwVzKqQIyxse7l-2">
          <mxGeometry x="45" y="251" width="10" height="306" as="geometry" />
        </mxCell>
        <mxCell id="e-44g8FwVzKqQIyxse7l-12" value="点击录入" style="html=1;verticalAlign=bottom;endArrow=block;entryX=0;entryY=0;" edge="1" target="e-44g8FwVzKqQIyxse7l-11" parent="e-44g8FwVzKqQIyxse7l-2">
          <mxGeometry relative="1" as="geometry">
            <mxPoint x="-141" y="251" as="sourcePoint" />
          </mxGeometry>
        </mxCell>
        <mxCell id="e-44g8FwVzKqQIyxse7l-17" value="" style="html=1;points=[];perimeter=orthogonalPerimeter;fillColor=#b1ddf0;strokeColor=#10739e;" vertex="1" parent="e-44g8FwVzKqQIyxse7l-2">
          <mxGeometry x="43" y="82" width="10" height="118" as="geometry" />
        </mxCell>
        <mxCell id="e-44g8FwVzKqQIyxse7l-18" value="查看渠道订单列表" style="html=1;verticalAlign=bottom;endArrow=block;entryX=0;entryY=0;" edge="1" target="e-44g8FwVzKqQIyxse7l-17" parent="e-44g8FwVzKqQIyxse7l-2">
          <mxGeometry relative="1" as="geometry">
            <mxPoint x="-138" y="82" as="sourcePoint" />
          </mxGeometry>
        </mxCell>
        <mxCell id="e-44g8FwVzKqQIyxse7l-19" value="返回列表数据" style="html=1;verticalAlign=bottom;endArrow=open;dashed=1;endSize=8;exitX=0;exitY=0.95;" edge="1" source="e-44g8FwVzKqQIyxse7l-17" parent="e-44g8FwVzKqQIyxse7l-2">
          <mxGeometry relative="1" as="geometry">
            <mxPoint x="-136" y="194" as="targetPoint" />
          </mxGeometry>
        </mxCell>
        <mxCell id="e-44g8FwVzKqQIyxse7l-3" value="鹊桥后端" style="shape=umlLifeline;perimeter=lifelinePerimeter;whiteSpace=wrap;html=1;container=1;collapsible=0;recursiveResize=0;outlineConnect=0;fillColor=#b1ddf0;strokeColor=#10739e;" vertex="1" parent="1">
          <mxGeometry x="251" y="-432" width="100" height="572" as="geometry" />
        </mxCell>
        <mxCell id="e-44g8FwVzKqQIyxse7l-20" value="" style="html=1;points=[];perimeter=orthogonalPerimeter;fillColor=#b1ddf0;strokeColor=#10739e;" vertex="1" parent="e-44g8FwVzKqQIyxse7l-3">
          <mxGeometry x="45" y="93" width="10" height="80" as="geometry" />
        </mxCell>
        <mxCell id="e-44g8FwVzKqQIyxse7l-34" value="" style="html=1;points=[];perimeter=orthogonalPerimeter;fillColor=#b1ddf0;strokeColor=#10739e;" vertex="1" parent="e-44g8FwVzKqQIyxse7l-3">
          <mxGeometry x="45" y="409" width="10" height="128" as="geometry" />
        </mxCell>
        <mxCell id="e-44g8FwVzKqQIyxse7l-4" value="" style="html=1;points=[];perimeter=orthogonalPerimeter;fillColor=#b1ddf0;strokeColor=#10739e;" vertex="1" parent="1">
          <mxGeometry x="-93" y="-370" width="10" height="508" as="geometry" />
        </mxCell>
        <mxCell id="e-44g8FwVzKqQIyxse7l-5" value="销售" style="shape=umlActor;verticalLabelPosition=bottom;verticalAlign=top;html=1;" vertex="1" parent="1">
          <mxGeometry x="-103" y="-461" width="30" height="60" as="geometry" />
        </mxCell>
        <mxCell id="e-44g8FwVzKqQIyxse7l-14" value="mysql" style="shape=umlLifeline;perimeter=lifelinePerimeter;whiteSpace=wrap;html=1;container=1;collapsible=0;recursiveResize=0;outlineConnect=0;fillColor=#b1ddf0;strokeColor=#10739e;" vertex="1" parent="1">
          <mxGeometry x="430" y="-432" width="88" height="573" as="geometry" />
        </mxCell>
        <mxCell id="e-44g8FwVzKqQIyxse7l-15" value="查看订单管理订单列表" style="html=1;verticalAlign=bottom;endArrow=block;entryX=0;entryY=0;" edge="1" parent="e-44g8FwVzKqQIyxse7l-14">
          <mxGeometry relative="1" as="geometry">
            <mxPoint x="-401" y="654" as="sourcePoint" />
          </mxGeometry>
        </mxCell>
        <mxCell id="e-44g8FwVzKqQIyxse7l-39" value="" style="html=1;points=[];perimeter=orthogonalPerimeter;fillColor=#b1ddf0;strokeColor=#10739e;" vertex="1" parent="e-44g8FwVzKqQIyxse7l-14">
          <mxGeometry x="38" y="459" width="14" height="52" as="geometry" />
        </mxCell>
        <mxCell id="e-44g8FwVzKqQIyxse7l-40" value="保存订单信息" style="html=1;verticalAlign=bottom;endArrow=block;entryX=0;entryY=0;" edge="1" parent="e-44g8FwVzKqQIyxse7l-14" target="e-44g8FwVzKqQIyxse7l-39">
          <mxGeometry relative="1" as="geometry">
            <mxPoint x="-120.5" y="459" as="sourcePoint" />
          </mxGeometry>
        </mxCell>
        <mxCell id="e-44g8FwVzKqQIyxse7l-41" value="成功" style="html=1;verticalAlign=bottom;endArrow=open;dashed=1;endSize=8;exitX=0;exitY=0.95;" edge="1" parent="e-44g8FwVzKqQIyxse7l-14" source="e-44g8FwVzKqQIyxse7l-39">
          <mxGeometry relative="1" as="geometry">
            <mxPoint x="-128" y="508.4000000000001" as="targetPoint" />
          </mxGeometry>
        </mxCell>
        <mxCell id="e-44g8FwVzKqQIyxse7l-21" value="查询所有渠道订单" style="html=1;verticalAlign=bottom;endArrow=block;entryX=0;entryY=0;" edge="1" target="e-44g8FwVzKqQIyxse7l-20" parent="1" source="e-44g8FwVzKqQIyxse7l-2">
          <mxGeometry relative="1" as="geometry">
            <mxPoint x="226" y="-349" as="sourcePoint" />
          </mxGeometry>
        </mxCell>
        <mxCell id="e-44g8FwVzKqQIyxse7l-22" value="返回订单列表" style="html=1;verticalAlign=bottom;endArrow=open;dashed=1;endSize=8;exitX=0;exitY=0.95;" edge="1" source="e-44g8FwVzKqQIyxse7l-20" parent="1" target="e-44g8FwVzKqQIyxse7l-2">
          <mxGeometry relative="1" as="geometry">
            <mxPoint x="226" y="-273" as="targetPoint" />
          </mxGeometry>
        </mxCell>
        <mxCell id="e-44g8FwVzKqQIyxse7l-23" value="" style="html=1;points=[];perimeter=orthogonalPerimeter;fillColor=#b1ddf0;strokeColor=#10739e;" vertex="1" parent="1">
          <mxGeometry x="469" y="-330" width="14" height="52" as="geometry" />
        </mxCell>
        <mxCell id="e-44g8FwVzKqQIyxse7l-24" value="查询所有渠道订单" style="html=1;verticalAlign=bottom;endArrow=block;entryX=0;entryY=0;" edge="1" parent="1" target="e-44g8FwVzKqQIyxse7l-23">
          <mxGeometry relative="1" as="geometry">
            <mxPoint x="310.5" y="-330" as="sourcePoint" />
          </mxGeometry>
        </mxCell>
        <mxCell id="e-44g8FwVzKqQIyxse7l-25" value="返回订单列表" style="html=1;verticalAlign=bottom;endArrow=open;dashed=1;endSize=8;exitX=0;exitY=0.95;" edge="1" parent="1" source="e-44g8FwVzKqQIyxse7l-23">
          <mxGeometry relative="1" as="geometry">
            <mxPoint x="303" y="-280.5999999999999" as="targetPoint" />
          </mxGeometry>
        </mxCell>
        <mxCell id="e-44g8FwVzKqQIyxse7l-30" value="填写订单编号以及必填项" style="edgeStyle=orthogonalEdgeStyle;html=1;align=left;spacingLeft=2;endArrow=block;rounded=0;entryX=1;entryY=0;" edge="1" parent="1">
          <mxGeometry relative="1" as="geometry">
            <mxPoint x="123" y="-174" as="sourcePoint" />
            <Array as="points">
              <mxPoint x="148" y="-174" />
            </Array>
            <mxPoint x="128" y="-154" as="targetPoint" />
          </mxGeometry>
        </mxCell>
        <mxCell id="e-44g8FwVzKqQIyxse7l-31" value="填写商品信息(非必填)" style="edgeStyle=orthogonalEdgeStyle;html=1;align=left;spacingLeft=2;endArrow=block;rounded=0;entryX=1;entryY=0;" edge="1" parent="1">
          <mxGeometry relative="1" as="geometry">
            <mxPoint x="124" y="-145" as="sourcePoint" />
            <Array as="points">
              <mxPoint x="149" y="-145" />
            </Array>
            <mxPoint x="129" y="-125" as="targetPoint" />
          </mxGeometry>
        </mxCell>
        <mxCell id="e-44g8FwVzKqQIyxse7l-33" value="填写报单人" style="edgeStyle=orthogonalEdgeStyle;html=1;align=left;spacingLeft=2;endArrow=block;rounded=0;entryX=1;entryY=0;" edge="1" parent="1">
          <mxGeometry relative="1" as="geometry">
            <mxPoint x="125" y="-98" as="sourcePoint" />
            <Array as="points">
              <mxPoint x="150" y="-98" />
            </Array>
            <mxPoint x="130" y="-78" as="targetPoint" />
          </mxGeometry>
        </mxCell>
        <mxCell id="e-44g8FwVzKqQIyxse7l-13" value="返回订单信息/进入渠道单列表" style="html=1;verticalAlign=bottom;endArrow=open;dashed=1;endSize=8;exitX=0;exitY=0.95;" edge="1" source="e-44g8FwVzKqQIyxse7l-11" parent="1">
          <mxGeometry relative="1" as="geometry">
            <mxPoint x="-79" y="108" as="targetPoint" />
          </mxGeometry>
        </mxCell>
        <mxCell id="e-44g8FwVzKqQIyxse7l-36" value="返回订单信息" style="html=1;verticalAlign=bottom;endArrow=open;dashed=1;endSize=8;exitX=0;exitY=0.95;" edge="1" source="e-44g8FwVzKqQIyxse7l-34" parent="1">
          <mxGeometry relative="1" as="geometry">
            <mxPoint x="116.5" y="98.59999999999991" as="targetPoint" />
          </mxGeometry>
        </mxCell>
        <mxCell id="e-44g8FwVzKqQIyxse7l-35" value="提交订单信息" style="html=1;verticalAlign=bottom;endArrow=block;entryX=0;entryY=0;" edge="1" target="e-44g8FwVzKqQIyxse7l-34" parent="1" source="e-44g8FwVzKqQIyxse7l-2">
          <mxGeometry relative="1" as="geometry">
            <mxPoint x="226" y="-23" as="sourcePoint" />
          </mxGeometry>
        </mxCell>
        <mxCell id="e-44g8FwVzKqQIyxse7l-37" value="校验编号是否已存在" style="edgeStyle=orthogonalEdgeStyle;html=1;align=left;spacingLeft=2;endArrow=block;rounded=0;entryX=1;entryY=0;" edge="1" parent="1">
          <mxGeometry relative="1" as="geometry">
            <mxPoint x="306" y="-19" as="sourcePoint" />
            <Array as="points">
              <mxPoint x="331" y="-19" />
            </Array>
            <mxPoint x="311" y="1" as="targetPoint" />
          </mxGeometry>
        </mxCell>
        <mxCell id="e-44g8FwVzKqQIyxse7l-42" value="检索" style="edgeStyle=orthogonalEdgeStyle;html=1;align=left;spacingLeft=2;endArrow=block;rounded=0;entryX=1;entryY=0;" edge="1" parent="1">
          <mxGeometry relative="1" as="geometry">
            <mxPoint x="483" y="42" as="sourcePoint" />
            <Array as="points">
              <mxPoint x="508" y="42" />
            </Array>
            <mxPoint x="488" y="62" as="targetPoint" />
          </mxGeometry>
        </mxCell>
        <mxCell id="e-44g8FwVzKqQIyxse7l-48" value="鹊桥前端" style="shape=umlLifeline;perimeter=lifelinePerimeter;whiteSpace=wrap;html=1;container=1;collapsible=0;recursiveResize=0;outlineConnect=0;fillColor=#b1ddf0;strokeColor=#10739e;" vertex="1" parent="1">
          <mxGeometry x="67" y="363" width="100" height="1756" as="geometry" />
        </mxCell>
        <mxCell id="e-44g8FwVzKqQIyxse7l-49" value="" style="html=1;points=[];perimeter=orthogonalPerimeter;fillColor=#b1ddf0;strokeColor=#10739e;" vertex="1" parent="e-44g8FwVzKqQIyxse7l-48">
          <mxGeometry x="45" y="245" width="10" height="237" as="geometry" />
        </mxCell>
        <mxCell id="e-44g8FwVzKqQIyxse7l-54" value="鹊桥后端" style="shape=umlLifeline;perimeter=lifelinePerimeter;whiteSpace=wrap;html=1;container=1;collapsible=0;recursiveResize=0;outlineConnect=0;fillColor=#b1ddf0;strokeColor=#10739e;" vertex="1" parent="1">
          <mxGeometry x="251" y="363" width="100" height="1759" as="geometry" />
        </mxCell>
        <mxCell id="e-44g8FwVzKqQIyxse7l-56" value="" style="html=1;points=[];perimeter=orthogonalPerimeter;fillColor=#b1ddf0;strokeColor=#10739e;" vertex="1" parent="e-44g8FwVzKqQIyxse7l-54">
          <mxGeometry x="45" y="279" width="10" height="190" as="geometry" />
        </mxCell>
        <mxCell id="e-44g8FwVzKqQIyxse7l-57" value="" style="html=1;points=[];perimeter=orthogonalPerimeter;fillColor=#b1ddf0;strokeColor=#10739e;" vertex="1" parent="1">
          <mxGeometry x="-93" y="425" width="10" height="1697" as="geometry" />
        </mxCell>
        <mxCell id="e-44g8FwVzKqQIyxse7l-58" value="销售" style="shape=umlActor;verticalLabelPosition=bottom;verticalAlign=top;html=1;" vertex="1" parent="1">
          <mxGeometry x="-103" y="334" width="30" height="60" as="geometry" />
        </mxCell>
        <mxCell id="e-44g8FwVzKqQIyxse7l-59" value="mysql" style="shape=umlLifeline;perimeter=lifelinePerimeter;whiteSpace=wrap;html=1;container=1;collapsible=0;recursiveResize=0;outlineConnect=0;fillColor=#b1ddf0;strokeColor=#10739e;" vertex="1" parent="1">
          <mxGeometry x="430" y="363" width="88" height="1765" as="geometry" />
        </mxCell>
        <mxCell id="e-44g8FwVzKqQIyxse7l-60" value="查看订单管理订单列表" style="html=1;verticalAlign=bottom;endArrow=block;entryX=0;entryY=0;" edge="1" parent="e-44g8FwVzKqQIyxse7l-59">
          <mxGeometry relative="1" as="geometry">
            <mxPoint x="-401" y="654" as="sourcePoint" />
          </mxGeometry>
        </mxCell>
        <mxCell id="e-44g8FwVzKqQIyxse7l-61" value="" style="html=1;points=[];perimeter=orthogonalPerimeter;fillColor=#b1ddf0;strokeColor=#10739e;" vertex="1" parent="e-44g8FwVzKqQIyxse7l-59">
          <mxGeometry x="38" y="387" width="14" height="52" as="geometry" />
        </mxCell>
        <mxCell id="e-44g8FwVzKqQIyxse7l-62" value="保存" style="html=1;verticalAlign=bottom;endArrow=block;entryX=0;entryY=0;" edge="1" parent="e-44g8FwVzKqQIyxse7l-59" target="e-44g8FwVzKqQIyxse7l-61">
          <mxGeometry relative="1" as="geometry">
            <mxPoint x="-120.5" y="387" as="sourcePoint" />
          </mxGeometry>
        </mxCell>
        <mxCell id="e-44g8FwVzKqQIyxse7l-63" value="成功" style="html=1;verticalAlign=bottom;endArrow=open;dashed=1;endSize=8;exitX=0;exitY=0.95;" edge="1" parent="e-44g8FwVzKqQIyxse7l-59" source="e-44g8FwVzKqQIyxse7l-61">
          <mxGeometry relative="1" as="geometry">
            <mxPoint x="-128" y="436.4000000000001" as="targetPoint" />
          </mxGeometry>
        </mxCell>
        <mxCell id="e-44g8FwVzKqQIyxse7l-72" value="返回结果&lt;br&gt;融易算订单进入待跟进列表" style="html=1;verticalAlign=bottom;endArrow=open;dashed=1;endSize=8;exitX=0;exitY=0.95;" edge="1" parent="1" source="e-44g8FwVzKqQIyxse7l-49" target="e-44g8FwVzKqQIyxse7l-57">
          <mxGeometry relative="1" as="geometry">
            <mxPoint x="-79" y="773" as="targetPoint" />
          </mxGeometry>
        </mxCell>
        <mxCell id="e-44g8FwVzKqQIyxse7l-73" value="返回结果" style="html=1;verticalAlign=bottom;endArrow=open;dashed=1;endSize=8;exitX=0;exitY=0.95;" edge="1" parent="1" source="e-44g8FwVzKqQIyxse7l-56" target="e-44g8FwVzKqQIyxse7l-49">
          <mxGeometry relative="1" as="geometry">
            <mxPoint x="116.5" y="763.5999999999999" as="targetPoint" />
          </mxGeometry>
        </mxCell>
        <mxCell id="e-44g8FwVzKqQIyxse7l-74" value="提交" style="html=1;verticalAlign=bottom;endArrow=block;entryX=0;entryY=0;" edge="1" parent="1" target="e-44g8FwVzKqQIyxse7l-56">
          <mxGeometry relative="1" as="geometry">
            <mxPoint x="116.5" y="642" as="sourcePoint" />
          </mxGeometry>
        </mxCell>
        <mxCell id="e-44g8FwVzKqQIyxse7l-75" value="选择未转化的渠道订单" style="edgeStyle=orthogonalEdgeStyle;html=1;align=left;spacingLeft=2;endArrow=block;rounded=0;entryX=1;entryY=0;" edge="1" parent="1">
          <mxGeometry relative="1" as="geometry">
            <mxPoint x="-78" y="510" as="sourcePoint" />
            <Array as="points">
              <mxPoint x="-53" y="510" />
            </Array>
            <mxPoint x="-73" y="530" as="targetPoint" />
          </mxGeometry>
        </mxCell>
        <mxCell id="e-44g8FwVzKqQIyxse7l-76" value="保存" style="edgeStyle=orthogonalEdgeStyle;html=1;align=left;spacingLeft=2;endArrow=block;rounded=0;entryX=1;entryY=0;" edge="1" parent="1">
          <mxGeometry relative="1" as="geometry">
            <mxPoint x="483" y="765" as="sourcePoint" />
            <Array as="points">
              <mxPoint x="508" y="765" />
            </Array>
            <mxPoint x="488" y="785" as="targetPoint" />
          </mxGeometry>
        </mxCell>
        <mxCell id="e-44g8FwVzKqQIyxse7l-50" value="点击直接创建" style="html=1;verticalAlign=bottom;endArrow=block;entryX=0;entryY=0;exitX=0.204;exitY=0.371;exitDx=0;exitDy=0;exitPerimeter=0;" edge="1" parent="1" target="e-44g8FwVzKqQIyxse7l-49" source="e-44g8FwVzKqQIyxse7l-46">
          <mxGeometry relative="1" as="geometry">
            <mxPoint x="-74" y="484" as="sourcePoint" />
          </mxGeometry>
        </mxCell>
        <mxCell id="e-44g8FwVzKqQIyxse7l-80" value="转为融易算订单" style="edgeStyle=orthogonalEdgeStyle;html=1;align=left;spacingLeft=2;endArrow=block;rounded=0;entryX=1;entryY=0;" edge="1" parent="1">
          <mxGeometry relative="1" as="geometry">
            <mxPoint x="319" y="692" as="sourcePoint" />
            <Array as="points">
              <mxPoint x="344" y="692" />
            </Array>
            <mxPoint x="324" y="712" as="targetPoint" />
          </mxGeometry>
        </mxCell>
        <mxCell id="e-44g8FwVzKqQIyxse7l-81" value="有报单人直接置位&lt;br&gt;有归属人待跟进" style="edgeStyle=orthogonalEdgeStyle;html=1;align=left;spacingLeft=2;endArrow=block;rounded=0;entryX=1;entryY=0;" edge="1" parent="1">
          <mxGeometry relative="1" as="geometry">
            <mxPoint x="319" y="662" as="sourcePoint" />
            <Array as="points">
              <mxPoint x="344" y="662" />
            </Array>
            <mxPoint x="324" y="682" as="targetPoint" />
          </mxGeometry>
        </mxCell>
        <mxCell id="e-44g8FwVzKqQIyxse7l-96" value="一拆多" style="shape=umlFrame;whiteSpace=wrap;html=1;fillColor=#fad7ac;strokeColor=#b46504;dashed=1;shadow=0;dashPattern=1 2;" vertex="1" parent="1">
          <mxGeometry x="-232" y="885" width="809" height="415" as="geometry" />
        </mxCell>
        <mxCell id="e-44g8FwVzKqQIyxse7l-97" value="" style="html=1;points=[];perimeter=orthogonalPerimeter;fillColor=#b1ddf0;strokeColor=#10739e;" vertex="1" parent="1">
          <mxGeometry x="111" y="999" width="10" height="277" as="geometry" />
        </mxCell>
        <mxCell id="e-44g8FwVzKqQIyxse7l-98" value="" style="html=1;points=[];perimeter=orthogonalPerimeter;fillColor=#b1ddf0;strokeColor=#10739e;" vertex="1" parent="1">
          <mxGeometry x="295" y="1073" width="10" height="190" as="geometry" />
        </mxCell>
        <mxCell id="e-44g8FwVzKqQIyxse7l-99" value="" style="html=1;points=[];perimeter=orthogonalPerimeter;fillColor=#b1ddf0;strokeColor=#10739e;" vertex="1" parent="1">
          <mxGeometry x="467" y="1181" width="14" height="52" as="geometry" />
        </mxCell>
        <mxCell id="e-44g8FwVzKqQIyxse7l-100" value="保存" style="html=1;verticalAlign=bottom;endArrow=block;entryX=0;entryY=0;" edge="1" parent="1" target="e-44g8FwVzKqQIyxse7l-99">
          <mxGeometry relative="1" as="geometry">
            <mxPoint x="308.5" y="1181" as="sourcePoint" />
          </mxGeometry>
        </mxCell>
        <mxCell id="e-44g8FwVzKqQIyxse7l-101" value="成功" style="html=1;verticalAlign=bottom;endArrow=open;dashed=1;endSize=8;exitX=0;exitY=0.95;" edge="1" parent="1" source="e-44g8FwVzKqQIyxse7l-99">
          <mxGeometry relative="1" as="geometry">
            <mxPoint x="301" y="1230.4" as="targetPoint" />
          </mxGeometry>
        </mxCell>
        <mxCell id="e-44g8FwVzKqQIyxse7l-102" value="返回结果&lt;br&gt;融易算订单进入待跟进列表" style="html=1;verticalAlign=bottom;endArrow=open;dashed=1;endSize=8;exitX=0;exitY=0.95;" edge="1" parent="1" source="e-44g8FwVzKqQIyxse7l-97">
          <mxGeometry relative="1" as="geometry">
            <mxPoint x="-84" y="1264.1499999999996" as="targetPoint" />
          </mxGeometry>
        </mxCell>
        <mxCell id="e-44g8FwVzKqQIyxse7l-103" value="返回结果" style="html=1;verticalAlign=bottom;endArrow=open;dashed=1;endSize=8;exitX=0;exitY=0.95;" edge="1" parent="1" source="e-44g8FwVzKqQIyxse7l-98" target="e-44g8FwVzKqQIyxse7l-97">
          <mxGeometry relative="1" as="geometry">
            <mxPoint x="115.5" y="1194.6" as="targetPoint" />
          </mxGeometry>
        </mxCell>
        <mxCell id="e-44g8FwVzKqQIyxse7l-104" value="提交" style="html=1;verticalAlign=bottom;endArrow=block;entryX=0;entryY=0;" edge="1" parent="1" target="e-44g8FwVzKqQIyxse7l-98">
          <mxGeometry relative="1" as="geometry">
            <mxPoint x="115.5" y="1073" as="sourcePoint" />
          </mxGeometry>
        </mxCell>
        <mxCell id="e-44g8FwVzKqQIyxse7l-105" value="选择未转化的渠道订单" style="edgeStyle=orthogonalEdgeStyle;html=1;align=left;spacingLeft=2;endArrow=block;rounded=0;entryX=1;entryY=0;" edge="1" parent="1">
          <mxGeometry relative="1" as="geometry">
            <mxPoint x="-79" y="941" as="sourcePoint" />
            <Array as="points">
              <mxPoint x="-54" y="941" />
            </Array>
            <mxPoint x="-74" y="961" as="targetPoint" />
          </mxGeometry>
        </mxCell>
        <mxCell id="e-44g8FwVzKqQIyxse7l-106" value="保存" style="edgeStyle=orthogonalEdgeStyle;html=1;align=left;spacingLeft=2;endArrow=block;rounded=0;entryX=1;entryY=0;" edge="1" parent="1">
          <mxGeometry relative="1" as="geometry">
            <mxPoint x="482" y="1196" as="sourcePoint" />
            <Array as="points">
              <mxPoint x="507" y="1196" />
            </Array>
            <mxPoint x="487" y="1216" as="targetPoint" />
          </mxGeometry>
        </mxCell>
        <mxCell id="e-44g8FwVzKqQIyxse7l-107" value="点击拆分创建" style="html=1;verticalAlign=bottom;endArrow=block;entryX=0;entryY=0;" edge="1" parent="1" target="e-44g8FwVzKqQIyxse7l-97">
          <mxGeometry relative="1" as="geometry">
            <mxPoint x="-67" y="999" as="sourcePoint" />
          </mxGeometry>
        </mxCell>
        <mxCell id="e-44g8FwVzKqQIyxse7l-108" value="生成多个融易算订单" style="edgeStyle=orthogonalEdgeStyle;html=1;align=left;spacingLeft=2;endArrow=block;rounded=0;entryX=1;entryY=0;" edge="1" parent="1">
          <mxGeometry relative="1" as="geometry">
            <mxPoint x="318" y="1123" as="sourcePoint" />
            <Array as="points">
              <mxPoint x="343" y="1123" />
            </Array>
            <mxPoint x="323" y="1143" as="targetPoint" />
          </mxGeometry>
        </mxCell>
        <mxCell id="e-44g8FwVzKqQIyxse7l-109" value="输入拆分的数量以及对应&lt;br&gt;的实付金额与总金额抹平" style="edgeStyle=orthogonalEdgeStyle;html=1;align=left;spacingLeft=2;endArrow=block;rounded=0;entryX=1;entryY=0;" edge="1" parent="1">
          <mxGeometry relative="1" as="geometry">
            <mxPoint x="125" y="1027" as="sourcePoint" />
            <Array as="points">
              <mxPoint x="150" y="1027" />
            </Array>
            <mxPoint x="130" y="1047" as="targetPoint" />
          </mxGeometry>
        </mxCell>
        <mxCell id="e-44g8FwVzKqQIyxse7l-110" value="有报单人直接置位&lt;br&gt;有归属人待跟进" style="edgeStyle=orthogonalEdgeStyle;html=1;align=left;spacingLeft=2;endArrow=block;rounded=0;entryX=1;entryY=0;" edge="1" parent="1">
          <mxGeometry relative="1" as="geometry">
            <mxPoint x="317" y="1096" as="sourcePoint" />
            <Array as="points">
              <mxPoint x="342" y="1096" />
            </Array>
            <mxPoint x="322" y="1116" as="targetPoint" />
          </mxGeometry>
        </mxCell>
        <mxCell id="e-44g8FwVzKqQIyxse7l-111" value="多并一" style="shape=umlFrame;whiteSpace=wrap;html=1;fillColor=#fad7ac;strokeColor=#b46504;dashed=1;shadow=0;dashPattern=1 2;" vertex="1" parent="1">
          <mxGeometry x="-231" y="1324" width="809" height="803" as="geometry" />
        </mxCell>
        <mxCell id="e-44g8FwVzKqQIyxse7l-112" value="" style="html=1;points=[];perimeter=orthogonalPerimeter;fillColor=#b1ddf0;strokeColor=#10739e;" vertex="1" parent="1">
          <mxGeometry x="112" y="1438" width="10" height="277" as="geometry" />
        </mxCell>
        <mxCell id="e-44g8FwVzKqQIyxse7l-113" value="" style="html=1;points=[];perimeter=orthogonalPerimeter;fillColor=#b1ddf0;strokeColor=#10739e;" vertex="1" parent="1">
          <mxGeometry x="296" y="1512" width="10" height="190" as="geometry" />
        </mxCell>
        <mxCell id="e-44g8FwVzKqQIyxse7l-114" value="" style="html=1;points=[];perimeter=orthogonalPerimeter;fillColor=#b1ddf0;strokeColor=#10739e;" vertex="1" parent="1">
          <mxGeometry x="468" y="1620" width="14" height="52" as="geometry" />
        </mxCell>
        <mxCell id="e-44g8FwVzKqQIyxse7l-115" value="保存" style="html=1;verticalAlign=bottom;endArrow=block;entryX=0;entryY=0;" edge="1" parent="1" target="e-44g8FwVzKqQIyxse7l-114">
          <mxGeometry relative="1" as="geometry">
            <mxPoint x="309.5" y="1620" as="sourcePoint" />
          </mxGeometry>
        </mxCell>
        <mxCell id="e-44g8FwVzKqQIyxse7l-116" value="成功" style="html=1;verticalAlign=bottom;endArrow=open;dashed=1;endSize=8;exitX=0;exitY=0.95;" edge="1" parent="1" source="e-44g8FwVzKqQIyxse7l-114">
          <mxGeometry relative="1" as="geometry">
            <mxPoint x="302" y="1669.4" as="targetPoint" />
          </mxGeometry>
        </mxCell>
        <mxCell id="e-44g8FwVzKqQIyxse7l-117" value="返回结果&lt;br&gt;融易算订单进入待跟进列表" style="html=1;verticalAlign=bottom;endArrow=open;dashed=1;endSize=8;exitX=0;exitY=0.95;" edge="1" parent="1" source="e-44g8FwVzKqQIyxse7l-112">
          <mxGeometry relative="1" as="geometry">
            <mxPoint x="-83" y="1703.1499999999996" as="targetPoint" />
          </mxGeometry>
        </mxCell>
        <mxCell id="e-44g8FwVzKqQIyxse7l-118" value="返回结果" style="html=1;verticalAlign=bottom;endArrow=open;dashed=1;endSize=8;exitX=0;exitY=0.95;" edge="1" parent="1" source="e-44g8FwVzKqQIyxse7l-113" target="e-44g8FwVzKqQIyxse7l-112">
          <mxGeometry relative="1" as="geometry">
            <mxPoint x="116.5" y="1633.6" as="targetPoint" />
          </mxGeometry>
        </mxCell>
        <mxCell id="e-44g8FwVzKqQIyxse7l-119" value="提交" style="html=1;verticalAlign=bottom;endArrow=block;entryX=0;entryY=0;" edge="1" parent="1" target="e-44g8FwVzKqQIyxse7l-113">
          <mxGeometry relative="1" as="geometry">
            <mxPoint x="116.5" y="1512" as="sourcePoint" />
          </mxGeometry>
        </mxCell>
        <mxCell id="e-44g8FwVzKqQIyxse7l-120" value="选择多个未转化的渠道订单" style="edgeStyle=orthogonalEdgeStyle;html=1;align=left;spacingLeft=2;endArrow=block;rounded=0;entryX=1;entryY=0;" edge="1" parent="1">
          <mxGeometry relative="1" as="geometry">
            <mxPoint x="-78" y="1380" as="sourcePoint" />
            <Array as="points">
              <mxPoint x="-53" y="1380" />
            </Array>
            <mxPoint x="-73" y="1400" as="targetPoint" />
          </mxGeometry>
        </mxCell>
        <mxCell id="e-44g8FwVzKqQIyxse7l-121" value="保存" style="edgeStyle=orthogonalEdgeStyle;html=1;align=left;spacingLeft=2;endArrow=block;rounded=0;entryX=1;entryY=0;" edge="1" parent="1">
          <mxGeometry relative="1" as="geometry">
            <mxPoint x="483" y="1635" as="sourcePoint" />
            <Array as="points">
              <mxPoint x="508" y="1635" />
            </Array>
            <mxPoint x="488" y="1655" as="targetPoint" />
          </mxGeometry>
        </mxCell>
        <mxCell id="e-44g8FwVzKqQIyxse7l-122" value="点击合并创建" style="html=1;verticalAlign=bottom;endArrow=block;entryX=0;entryY=0;" edge="1" parent="1" target="e-44g8FwVzKqQIyxse7l-112">
          <mxGeometry relative="1" as="geometry">
            <mxPoint x="-66" y="1438" as="sourcePoint" />
          </mxGeometry>
        </mxCell>
        <mxCell id="e-44g8FwVzKqQIyxse7l-123" value="转为融易算订单" style="edgeStyle=orthogonalEdgeStyle;html=1;align=left;spacingLeft=2;endArrow=block;rounded=0;entryX=1;entryY=0;" edge="1" parent="1">
          <mxGeometry relative="1" as="geometry">
            <mxPoint x="319" y="1562" as="sourcePoint" />
            <Array as="points">
              <mxPoint x="344" y="1562" />
            </Array>
            <mxPoint x="324" y="1582" as="targetPoint" />
          </mxGeometry>
        </mxCell>
        <mxCell id="e-44g8FwVzKqQIyxse7l-124" value="选择普通合并" style="edgeStyle=orthogonalEdgeStyle;html=1;align=left;spacingLeft=2;endArrow=block;rounded=0;entryX=1;entryY=0;" edge="1" parent="1">
          <mxGeometry relative="1" as="geometry">
            <mxPoint x="126" y="1466" as="sourcePoint" />
            <Array as="points">
              <mxPoint x="151" y="1466" />
            </Array>
            <mxPoint x="131" y="1486" as="targetPoint" />
          </mxGeometry>
        </mxCell>
        <mxCell id="e-44g8FwVzKqQIyxse7l-125" value="有报单人直接置位&lt;br&gt;有归属人待跟进" style="edgeStyle=orthogonalEdgeStyle;html=1;align=left;spacingLeft=2;endArrow=block;rounded=0;entryX=1;entryY=0;" edge="1" parent="1">
          <mxGeometry relative="1" as="geometry">
            <mxPoint x="318" y="1535" as="sourcePoint" />
            <Array as="points">
              <mxPoint x="343" y="1535" />
            </Array>
            <mxPoint x="323" y="1555" as="targetPoint" />
          </mxGeometry>
        </mxCell>
        <mxCell id="e-44g8FwVzKqQIyxse7l-126" value="校验是否同一个客户" style="edgeStyle=orthogonalEdgeStyle;html=1;align=left;spacingLeft=2;endArrow=block;rounded=0;entryX=1;entryY=0;" edge="1" parent="1">
          <mxGeometry relative="1" as="geometry">
            <mxPoint x="314" y="1508" as="sourcePoint" />
            <Array as="points">
              <mxPoint x="339" y="1508" />
            </Array>
            <mxPoint x="319" y="1528" as="targetPoint" />
          </mxGeometry>
        </mxCell>
        <mxCell id="e-44g8FwVzKqQIyxse7l-129" value="" style="html=1;points=[];perimeter=orthogonalPerimeter;fillColor=#b1ddf0;strokeColor=#10739e;" vertex="1" parent="1">
          <mxGeometry x="112" y="1781" width="10" height="330" as="geometry" />
        </mxCell>
        <mxCell id="e-44g8FwVzKqQIyxse7l-130" value="" style="html=1;points=[];perimeter=orthogonalPerimeter;fillColor=#b1ddf0;strokeColor=#10739e;" vertex="1" parent="1">
          <mxGeometry x="296" y="1900" width="10" height="190" as="geometry" />
        </mxCell>
        <mxCell id="e-44g8FwVzKqQIyxse7l-131" value="" style="html=1;points=[];perimeter=orthogonalPerimeter;fillColor=#b1ddf0;strokeColor=#10739e;" vertex="1" parent="1">
          <mxGeometry x="468" y="2008" width="14" height="52" as="geometry" />
        </mxCell>
        <mxCell id="e-44g8FwVzKqQIyxse7l-132" value="只增加关联关系" style="html=1;verticalAlign=bottom;endArrow=block;entryX=0;entryY=0;" edge="1" parent="1" target="e-44g8FwVzKqQIyxse7l-131">
          <mxGeometry relative="1" as="geometry">
            <mxPoint x="309.5" y="2008" as="sourcePoint" />
          </mxGeometry>
        </mxCell>
        <mxCell id="e-44g8FwVzKqQIyxse7l-133" value="成功" style="html=1;verticalAlign=bottom;endArrow=open;dashed=1;endSize=8;exitX=0;exitY=0.95;" edge="1" parent="1" source="e-44g8FwVzKqQIyxse7l-131">
          <mxGeometry relative="1" as="geometry">
            <mxPoint x="302" y="2057.4" as="targetPoint" />
          </mxGeometry>
        </mxCell>
        <mxCell id="e-44g8FwVzKqQIyxse7l-134" value="返回结果" style="html=1;verticalAlign=bottom;endArrow=open;dashed=1;endSize=8;exitX=0;exitY=0.95;" edge="1" parent="1">
          <mxGeometry relative="1" as="geometry">
            <mxPoint x="-83" y="2091.1499999999996" as="targetPoint" />
            <mxPoint x="112" y="2089.15" as="sourcePoint" />
          </mxGeometry>
        </mxCell>
        <mxCell id="e-44g8FwVzKqQIyxse7l-135" value="返回结果" style="html=1;verticalAlign=bottom;endArrow=open;dashed=1;endSize=8;exitX=0;exitY=0.95;" edge="1" parent="1" source="e-44g8FwVzKqQIyxse7l-130">
          <mxGeometry relative="1" as="geometry">
            <mxPoint x="122" y="2080.5" as="targetPoint" />
          </mxGeometry>
        </mxCell>
        <mxCell id="e-44g8FwVzKqQIyxse7l-136" value="提交" style="html=1;verticalAlign=bottom;endArrow=block;entryX=0;entryY=0;" edge="1" parent="1" target="e-44g8FwVzKqQIyxse7l-130">
          <mxGeometry relative="1" as="geometry">
            <mxPoint x="116.5" y="1900" as="sourcePoint" />
          </mxGeometry>
        </mxCell>
        <mxCell id="e-44g8FwVzKqQIyxse7l-137" value="选择多个未转化的渠道订单" style="edgeStyle=orthogonalEdgeStyle;html=1;align=left;spacingLeft=2;endArrow=block;rounded=0;entryX=1;entryY=0;" edge="1" parent="1">
          <mxGeometry relative="1" as="geometry">
            <mxPoint x="-78" y="1723" as="sourcePoint" />
            <Array as="points">
              <mxPoint x="-53" y="1723" />
            </Array>
            <mxPoint x="-73" y="1743" as="targetPoint" />
          </mxGeometry>
        </mxCell>
        <mxCell id="e-44g8FwVzKqQIyxse7l-138" value="保存" style="edgeStyle=orthogonalEdgeStyle;html=1;align=left;spacingLeft=2;endArrow=block;rounded=0;entryX=1;entryY=0;" edge="1" parent="1">
          <mxGeometry relative="1" as="geometry">
            <mxPoint x="483" y="2023" as="sourcePoint" />
            <Array as="points">
              <mxPoint x="508" y="2023" />
            </Array>
            <mxPoint x="488" y="2043" as="targetPoint" />
          </mxGeometry>
        </mxCell>
        <mxCell id="e-44g8FwVzKqQIyxse7l-139" value="点击合并创建" style="html=1;verticalAlign=bottom;endArrow=block;entryX=0;entryY=0;" edge="1" parent="1" target="e-44g8FwVzKqQIyxse7l-129">
          <mxGeometry relative="1" as="geometry">
            <mxPoint x="-66" y="1781" as="sourcePoint" />
          </mxGeometry>
        </mxCell>
        <mxCell id="e-44g8FwVzKqQIyxse7l-140" value="绑定到已有融易算订单" style="edgeStyle=orthogonalEdgeStyle;html=1;align=left;spacingLeft=2;endArrow=block;rounded=0;entryX=1;entryY=0;" edge="1" parent="1">
          <mxGeometry relative="1" as="geometry">
            <mxPoint x="317" y="1950" as="sourcePoint" />
            <Array as="points">
              <mxPoint x="342" y="1950" />
            </Array>
            <mxPoint x="322" y="1970" as="targetPoint" />
          </mxGeometry>
        </mxCell>
        <mxCell id="e-44g8FwVzKqQIyxse7l-141" value="选择合并到已有订单" style="edgeStyle=orthogonalEdgeStyle;html=1;align=left;spacingLeft=2;endArrow=block;rounded=0;entryX=1;entryY=0;" edge="1" parent="1">
          <mxGeometry relative="1" as="geometry">
            <mxPoint x="126" y="1809" as="sourcePoint" />
            <Array as="points">
              <mxPoint x="151" y="1809" />
            </Array>
            <mxPoint x="131" y="1829" as="targetPoint" />
          </mxGeometry>
        </mxCell>
        <mxCell id="e-44g8FwVzKqQIyxse7l-143" value="校验是否同一个客户" style="edgeStyle=orthogonalEdgeStyle;html=1;align=left;spacingLeft=2;endArrow=block;rounded=0;entryX=1;entryY=0;" edge="1" parent="1">
          <mxGeometry relative="1" as="geometry">
            <mxPoint x="314" y="1907" as="sourcePoint" />
            <Array as="points">
              <mxPoint x="339" y="1907" />
            </Array>
            <mxPoint x="319" y="1927" as="targetPoint" />
          </mxGeometry>
        </mxCell>
        <mxCell id="e-44g8FwVzKqQIyxse7l-144" value="输入订单编号" style="edgeStyle=orthogonalEdgeStyle;html=1;align=left;spacingLeft=2;endArrow=block;rounded=0;entryX=1;entryY=0;" edge="1" parent="1">
          <mxGeometry relative="1" as="geometry">
            <mxPoint x="128" y="1841" as="sourcePoint" />
            <Array as="points">
              <mxPoint x="153" y="1841" />
            </Array>
            <mxPoint x="133" y="1861" as="targetPoint" />
          </mxGeometry>
        </mxCell>
        <mxCell id="e-44g8FwVzKqQIyxse7l-145" value="普通合并" style="shape=umlFrame;whiteSpace=wrap;html=1;shadow=0;dashed=1;dashPattern=1 2;fillColor=#b0e3e6;strokeColor=#0e8088;labelBackgroundColor=none;" vertex="1" parent="1">
          <mxGeometry x="-158" y="1358" width="702" height="361" as="geometry" />
        </mxCell>
        <mxCell id="e-44g8FwVzKqQIyxse7l-146" value="合并到融易算订单" style="shape=umlFrame;whiteSpace=wrap;html=1;shadow=0;dashed=1;dashPattern=1 2;fillColor=#b0e3e6;strokeColor=#0e8088;" vertex="1" parent="1">
          <mxGeometry x="-158" y="1722" width="702" height="399" as="geometry" />
        </mxCell>
      </root>
    </mxGraphModel>
  </diagram>
</mxfile>
